<?xml version="1.0" standalone="no"?>
<!DOCTYPE svg PUBLIC "-//W3C//DTD SVG 20010904//EN"
 "http://www.w3.org/TR/2001/REC-SVG-20010904/DTD/svg10.dtd">
<svg version="1.0" xmlns="http://www.w3.org/2000/svg"
 width="1244.000000pt" height="1244.000000pt" viewBox="0 0 1244.000000 1244.000000"
 preserveAspectRatio="xMidYMid meet">
<metadata>
Created by potrace 1.11, written by Peter Selinger 2001-2013
</metadata>
<g transform="translate(0.000000,1244.000000) scale(0.100000,-0.100000)"
fill="#000000" stroke="none">
<path d="M5920 12433 c-129 -6 -344 -25 -460 -39 -1129 -138 -2198 -585 -3095
-1293 -205 -162 -323 -267 -541 -485 -405 -406 -696 -782 -984 -1271 -104
-178 -291 -555 -373 -755 -391 -946 -542 -2013 -431 -3045 120 -1116 537
-2171 1214 -3070 845 -1121 2049 -1928 3402 -2280 380 -98 748 -157 1162 -186
220 -15 806 -6 1016 15 1032 107 1972 441 2823 1003 581 384 1120 890 1538
1445 693 920 1105 1977 1225 3138 35 342 30 953 -12 1315 -194 1699 -1073
3236 -2439 4265 -1091 821 -2413 1259 -3770 1248 -121 -1 -245 -3 -275 -5z
m3040 -1923 c15 0 32 -59 25 -87 -15 -62 25 -10 -1169 -1523 -490 -621 -502
-637 -511 -690 -12 -68 32 -119 102 -120 35 0 50 7 101 50 32 27 65 58 73 69
35 48 1652 1852 1690 1884 41 36 114 58 138 42 6 -3 11 -30 11 -60 0 -43 -6
-62 -33 -101 -18 -27 -278 -359 -578 -739 -1119 -1417 -1046 -1322 -1059
-1380 -22 -98 71 -168 155 -117 58 36 138 122 796 862 1084 1218 1030 1160
1096 1174 25 6 36 3 54 -15 30 -30 21 -85 -25 -155 -20 -29 -379 -489 -799
-1021 -420 -533 -775 -986 -788 -1008 -45 -72 -53 -102 -40 -145 16 -55 35
-70 85 -70 53 0 94 28 186 126 36 38 414 461 841 939 427 479 803 896 836 927
69 65 101 78 138 54 38 -25 42 -61 13 -120 -19 -39 -1233 -1586 -2107 -2686
-135 -170 -220 -236 -355 -275 -83 -24 -194 -17 -266 16 -30 14 -90 55 -133
90 -43 35 -113 92 -155 127 -42 34 -84 62 -93 62 -10 0 -39 -28 -66 -62 -137
-175 -514 -679 -524 -702 -16 -34 -16 -33 202 -266 100 -107 574 -616 1053
-1130 1622 -1742 1539 -1649 1566 -1745 29 -102 -8 -152 -298 -396 -332 -280
-378 -307 -481 -274 -44 14 -67 30 -123 89 -37 39 -577 746 -1199 1571 -622
825 -1139 1511 -1150 1523 -20 23 -21 23 -41 5 -11 -10 -477 -623 -1036 -1363
-559 -740 -1106 -1464 -1216 -1610 -227 -300 -298 -378 -370 -405 -42 -16 -54
-17 -95 -6 -56 15 -83 33 -247 167 -234 191 -387 328 -416 373 -49 78 -32 165
55 275 34 44 416 455 1837 1982 1123 1206 1070 1147 1070 1172 0 11 -25 53
-56 94 -31 40 -207 273 -391 518 -184 245 -344 453 -355 463 -30 26 -76 21
-156 -18 -92 -44 -223 -88 -332 -111 -118 -25 -372 -25 -490 0 -358 76 -680
260 -949 542 -317 332 -582 814 -706 1286 -90 345 -114 673 -69 938 70 407
247 649 549 749 113 37 213 51 371 51 283 0 537 -52 815 -165 742 -303 1371
-913 1569 -1523 61 -188 74 -277 74 -497 1 -186 -1 -208 -26 -308 -45 -175
-111 -319 -225 -486 -53 -77 -60 -103 -39 -133 9 -12 203 -224 432 -470 261
-281 423 -448 434 -448 12 0 128 117 306 308 157 169 293 316 300 328 8 12 12
28 8 37 -3 8 -56 57 -117 109 -186 156 -205 175 -245 257 -35 72 -37 79 -37
175 0 120 21 186 90 286 24 36 200 241 392 455 191 215 698 784 1126 1265 428
481 802 896 830 922 57 53 105 80 125 73 8 -3 17 -5 22 -5z"/>
</g>
</svg>
